<svg version="1.1" xmlns="http://www.w3.org/2000/svg" xmlns:xlink="http://www.w3.org/1999/xlink" width="39.47232" height="75.66954" viewBox="0,0,39.47232,75.66954"><defs><linearGradient x1="250.46623" y1="225.9029" x2="248.46483" y2="235.07969" gradientUnits="userSpaceOnUse" id="color-1"><stop offset="0" stop-color="#961515"/><stop offset="1" stop-color="#797979"/></linearGradient><linearGradient x1="253.47448" y1="211.03377" x2="249.10936" y2="231.04877" gradientUnits="userSpaceOnUse" id="color-2"><stop offset="0" stop-color="#969696"/><stop offset="1" stop-color="#797979"/></linearGradient><linearGradient x1="252.6356" y1="215.15166" x2="250.07289" y2="226.90217" gradientUnits="userSpaceOnUse" id="color-3"><stop offset="0" stop-color="#797979"/><stop offset="1" stop-color="#969696"/></linearGradient></defs><g transform="translate(-231.59169,-161.6976)"><g data-paper-data="{&quot;isPaintingLayer&quot;:true}" fill="none" fill-rule="nonzero" stroke="none" stroke-width="1.5" stroke-linecap="none" stroke-linejoin="miter" stroke-miterlimit="10" stroke-dasharray="" stroke-dashoffset="0" font-family="none" font-weight="none" font-size="none" text-anchor="none" style="mix-blend-mode: normal"><path d="M243.70737,224.42885l13.51307,2.9471l0.94895,1.92233l-1.2446,5.72897l-1.70574,1.52549l-13.51307,-2.9471l-0.91281,-2.00095l1.2154,-5.65993z" data-paper-data="{&quot;origPos&quot;:null}" fill="url(#color-1)" stroke="#744343" stroke-linecap="butt"/><g data-paper-data="{&quot;origPos&quot;:null,&quot;origRot&quot;:0}"><path d="M251.00997,210.15067c0,0 4.23979,-14.15803 6.2803,-23.51416c1.87202,-8.58365 3.74508,-22.45433 3.74508,-22.45433c0,0 1.84915,-0.74875 2.87918,-0.5241c1.11587,0.24336 2.61944,1.72332 2.61944,1.72332c0,0 -3.83384,13.35312 -5.7246,22.02261c-2.02179,9.2703 -4.30078,23.94587 -4.30078,23.94587z" data-paper-data="{&quot;origPos&quot;:null}" fill="#72641f" stroke="#4a4114" stroke-linecap="butt"/><path d="M265.57991,167.64307l-5.26233,2.99964" fill="none" stroke="#7b7b7b" stroke-linecap="round"/><path d="M259.68227,176.72513l3.92276,-2.13976" fill="none" stroke="#7b7b7b" stroke-linecap="round"/><path d="M261.43828,182.40745l-3.38694,1.79581" fill="none" stroke="#7b7b7b" stroke-linecap="round"/><path d="M259.99924,189.00579l-3.43491,2.01576" fill="none" stroke="#7b7b7b" stroke-linecap="round"/><path d="M255.12528,197.6199l4.04677,-1.6519" fill="none" stroke="#7b7b7b" stroke-linecap="round"/><path d="M252.66255,204.68621l5.48228,-2.95167" fill="none" stroke="#7b7b7b" stroke-linecap="round"/><path d="M256.53379,208.06497l-4.14271,2.09179" fill="none" stroke="#7b7b7b" stroke-linecap="round"/></g><path d="M238.73312,207.8188l29.47262,6.42775l2.06971,4.1927l-2.71453,12.49514l-3.7203,3.32715l-29.47262,-6.42775l-1.99089,-4.36416l2.65083,-12.34458z" data-paper-data="{&quot;origPos&quot;:null}" fill="url(#color-2)" stroke="#525252" stroke-linecap="butt"/><path d="M239.54978,212.29773l26.17161,5.70783l-2.5627,11.75052l-26.17161,-5.70783z" data-paper-data="{&quot;origPos&quot;:null}" fill="url(#color-3)" stroke="#676767" stroke-linecap="butt"/><path d="M268.28497,216.51309l-2.16867,1.3921" fill="none" stroke="#676767" stroke-linecap="round"/><path d="M264.65117,232.31966l-1.74817,-2.24632" fill="none" stroke="#676767" stroke-linecap="round"/><path d="M236.98708,224.04826l-2.78044,1.63168" fill="none" stroke="#676767" stroke-linecap="round"/><path d="M239.41058,212.08087l-1.787,-2.06829" fill="none" stroke="#676767" stroke-linecap="round"/><path d="M261.1654,163.85978c0,0 2.08681,-1.8095 3.46109,-1.33191c1.37428,0.47759 2.22916,2.80767 2.22916,2.80767l-1.46843,3.96626l-4.87943,-0.71637z" data-paper-data="{&quot;origPos&quot;:null}" fill="#676767" stroke="#525252" stroke-linecap="round"/></g></g></svg>