<svg version="1.1" xmlns="http://www.w3.org/2000/svg" xmlns:xlink="http://www.w3.org/1999/xlink" width="60.97587" height="44.40254" viewBox="0,0,60.97587,44.40254"><defs><radialGradient cx="264.46221" cy="185.84865" r="24.55561" gradientUnits="userSpaceOnUse" id="color-1"><stop offset="0" stop-color="#5f5f5f"/><stop offset="1" stop-color="#3f3f3f"/></radialGradient><linearGradient x1="293.53918" y1="195.68332" x2="286.44471" y2="193.33364" gradientUnits="userSpaceOnUse" id="color-2"><stop offset="0" stop-color="#5f5f5f"/><stop offset="1" stop-color="#6165d3"/></linearGradient><linearGradient x1="236.78347" y1="176.88589" x2="243.87794" y2="179.23557" gradientUnits="userSpaceOnUse" id="color-3"><stop offset="0" stop-color="#5f5f5f"/><stop offset="1" stop-color="#6165d3"/></linearGradient><linearGradient x1="272.05505" y1="165.47015" x2="270.34687" y2="170.62772" gradientUnits="userSpaceOnUse" id="color-4"><stop offset="0" stop-color="#5f5f5f"/><stop offset="1" stop-color="#6165d3"/></linearGradient><linearGradient x1="260.38489" y1="204.86766" x2="262.83549" y2="198.35576" gradientUnits="userSpaceOnUse" id="color-5"><stop offset="0" stop-color="#5f5f5f"/><stop offset="1" stop-color="#6165d3"/></linearGradient></defs><g transform="translate(-234.69214,-162.79897)"><g data-paper-data="{&quot;isPaintingLayer&quot;:true}" fill="none" fill-rule="nonzero" stroke="none" stroke-width="1.5" stroke-linecap="none" stroke-linejoin="miter" stroke-miterlimit="10" stroke-dasharray="" stroke-dashoffset="0" font-family="none" font-weight="none" font-size="none" text-anchor="none" style="mix-blend-mode: normal"><g data-paper-data="{&quot;origPos&quot;:null,&quot;origRot&quot;:0}"><path d="M241.77952,178.42619c3.09974,-9.35917 16.04899,-13.48975 28.92296,-9.22591c12.87397,4.26384 20.79754,15.30748 17.69779,24.66665c-3.09974,9.35917 -16.049,13.48975 -28.92297,9.2259c-12.87397,-4.26384 -20.79752,-15.30748 -17.69778,-24.66665z" data-paper-data="{&quot;origPos&quot;:null}" fill="url(#color-1)" stroke="#808080" stroke-linecap="butt"/><path d="M288.27491,187.80767l5.4053,1.79023c0,0 1.40397,1.42053 1.22143,1.97167c-0.54761,1.65342 -1.63671,4.94177 -2.68428,8.10475c-0.1984,0.59904 -2.19754,0.97551 -2.19754,0.97551l-5.4053,-1.79023z" data-paper-data="{&quot;origPos&quot;:null,&quot;index&quot;:null,&quot;origRot&quot;:0}" fill="url(#color-2)" stroke="#414141" stroke-linecap="butt"/><path d="M242.04774,184.76152l-5.4053,-1.79022c0,0 -1.37918,-1.49537 -1.18078,-2.09441c1.04757,-3.16298 2.13667,-6.45133 2.68428,-8.10475c0.18254,-0.55114 2.15688,-0.85277 2.15688,-0.85277l5.40531,1.79023z" data-paper-data="{&quot;origPos&quot;:null,&quot;index&quot;:null,&quot;origRot&quot;:0}" fill="url(#color-3)" stroke="#414141" stroke-linecap="butt"/><path d="M262.74566,168.11021l1.30147,-3.92957c0,0 1.59116,-0.8357 2.34928,-0.58462c2.27434,0.75326 6.79761,2.25137 11.14843,3.69235c0.82401,0.27291 1.7047,1.92729 1.7047,1.92729l-1.30147,3.92957z" data-paper-data="{&quot;origPos&quot;:null,&quot;index&quot;:null,&quot;origRot&quot;:0}" fill="url(#color-4)" stroke="#414141" stroke-linecap="butt"/><path d="M254.97023,171.03475l21.16987,26.68981" data-paper-data="{&quot;origPos&quot;:null}" fill="none" stroke="#414141" stroke-linecap="round"/><path d="M282.13162,180.32223l-30.49853,7.60451" data-paper-data="{&quot;origPos&quot;:null}" fill="none" stroke="#414141" stroke-linecap="round"/><path d="M247.9656,178.53861l34.82925,12.37535" data-paper-data="{&quot;origPos&quot;:null}" fill="none" stroke="#414141" stroke-linecap="round"/><path d="M269.14982,173.71105l-6.63776,21.80571" data-paper-data="{&quot;origPos&quot;:null}" fill="none" stroke="#414141" stroke-linecap="round"/><path d="M241.89617,181.17166l-3.65605,-1.03016l-1.42575,-2.72961" fill="none" stroke="#414141" stroke-linecap="round"/><path d="M286.44555,195.85251l4.0185,1.55351l1.93253,-0.56399" fill="none" stroke="#414141" stroke-linecap="round"/><path d="M243.64374,182.12964c0,0 4.43223,12.14944 11.70078,14.874c5.0036,1.87556 9.11296,4.10229 14.45651,4.08848c6.25235,-0.01616 15.05037,-3.51611 15.05037,-3.51611" data-paper-data="{&quot;origPos&quot;:null}" fill="none" stroke="#808080" stroke-linecap="round"/><path d="M270.00148,200.48266l-1.23096,4.98551c0,0 -1.90491,1.18614 -2.75069,0.95297c-4.46584,-1.23118 -9.10868,-2.51116 -11.44314,-3.15474c-0.77816,-0.21452 -1.41045,-2.10015 -1.41045,-2.10015l0.9813,-5.12236z" data-paper-data="{&quot;origPos&quot;:null,&quot;index&quot;:null,&quot;origRot&quot;:0}" fill="url(#color-5)" stroke="#414141" stroke-linecap="butt"/><path d="M254.03454,200.48793l14.10083,4.48305" data-paper-data="{&quot;origPos&quot;:null}" fill="none" stroke="#414141" stroke-linecap="round"/></g></g></g></svg>