<svg version="1.1" xmlns="http://www.w3.org/2000/svg" xmlns:xlink="http://www.w3.org/1999/xlink" width="29.73471" height="80.54321" viewBox="0,0,29.73471,80.54321"><defs><linearGradient x1="253.97004" y1="218.51386" x2="245.35764" y2="215.9297" gradientUnits="userSpaceOnUse" id="color-1"><stop offset="0" stop-color="#ffffff"/><stop offset="1" stop-color="#d0d0d0"/></linearGradient></defs><g transform="translate(-237.45602,-167.78479)"><g data-paper-data="{&quot;isPaintingLayer&quot;:true}" fill="none" fill-rule="nonzero" stroke="none" stroke-width="1" stroke-linecap="none" stroke-linejoin="miter" stroke-miterlimit="10" stroke-dasharray="" stroke-dashoffset="0" font-family="none" font-weight="none" font-size="none" text-anchor="none" style="mix-blend-mode: normal"><path d="M254.53194,185.35392l6.32524,1.23422c0,0 -2.18236,11.59234 -4.34541,22.38181c-2.694,13.43797 -13.43891,38.3639 -13.43891,38.3639l-4.90741,0.43006c0,0 8.33446,-25.60483 11.89631,-40.98237c2.0829,-8.99249 4.47014,-21.4276 4.47014,-21.4276z" data-paper-data="{&quot;origPos&quot;:null,&quot;origRot&quot;:0}" fill="url(#color-1)" stroke="#9a9a9a" stroke-linecap="butt"/><path d="M262.27772,169.77082l-0.46269,16.52521l4.81126,2.76272l-0.78008,3.68952l-17.99762,-5.40022l1.47001,-3.80949l5.36934,0.63017l0.81064,-15.77809z" data-paper-data="{&quot;origPos&quot;:null}" fill="#000000" stroke="#9a9a9a" stroke-linecap="butt"/><path d="M257.84831,184.19055l3.197,0.6323" data-paper-data="{&quot;origPos&quot;:null}" fill="none" stroke="#e6ce66" stroke-linecap="round"/><path d="M258.55471,181.18174l2.76918,0.17696" data-paper-data="{&quot;origPos&quot;:null}" fill="none" stroke="#e6ce66" stroke-linecap="round"/><path d="M261.79608,177.90375l-2.85918,0.12299" data-paper-data="{&quot;origPos&quot;:null}" fill="none" stroke="#e6ce66" stroke-linecap="round"/><path d="M262.53091,174.20063l-3.64704,0.8675" data-paper-data="{&quot;origPos&quot;:null}" fill="none" stroke="#e6ce66" stroke-linecap="round"/></g></g></svg>