<svg version="1.1" xmlns="http://www.w3.org/2000/svg" xmlns:xlink="http://www.w3.org/1999/xlink" width="37.0028" height="37.0028"><g transform="translate(-221.40908,-161.4503)"><g data-paper-data="{&quot;isPaintingLayer&quot;:true}" fill="none" fill-rule="nonzero" stroke="none" stroke-width="none" stroke-linecap="butt" stroke-linejoin="miter" stroke-miterlimit="10" stroke-dasharray="" stroke-dashoffset="0" font-family="none" font-weight="none" font-size="none" text-anchor="none" style="mix-blend-mode: normal"><path d="M222.40908,179.9517c0,-9.66577 7.83566,-17.5014 17.5014,-17.5014c9.66577,0 17.5014,7.83566 17.5014,17.5014c0,9.66577 -7.83566,17.5014 -17.5014,17.5014c-9.66577,0 -17.5014,-7.83566 -17.5014,-17.5014z" data-paper-data="{&quot;origPos&quot;:null}" fill="#ff8cd9" stroke="#000000" stroke-width="2"/><path d="M249.01708,185.6667c0,-1.38071 1.11929,-2.5 2.5,-2.5c1.38071,0 2.5,1.11929 2.5,2.5c0,1.38071 -1.11929,2.5 -2.5,2.5c-1.38071,0 -2.5,-1.11929 -2.5,-2.5z" fill="#000000" stroke="none" stroke-width="0.5"/><path d="M249.01708,174.4297c0,-1.38071 1.11929,-2.5 2.5,-2.5c1.38071,0 2.5,1.11929 2.5,2.5c0,1.38071 -1.11929,2.5 -2.5,2.5c-1.38071,0 -2.5,-1.11929 -2.5,-2.5z" fill="#000000" stroke="none" stroke-width="0.5"/><path d="M248.09208,180.7397c0,6.29214 -5.1679,11.3929 -11.5428,11.3929c-6.37493,0 -11.5428,-5.10079 -11.5428,-11.3929c0,-6.29214 5.1679,-11.3929 11.5428,-11.3929c6.37493,0 11.5428,5.10079 11.5428,11.3929z" data-paper-data="{&quot;origPos&quot;:null}" fill="#ffb3e6" stroke="none" stroke-width="0"/></g></g></svg>