<svg version="1.1" xmlns="http://www.w3.org/2000/svg" xmlns:xlink="http://www.w3.org/1999/xlink" width="486.33333" height="364.75"><defs><radialGradient cx="246" cy="178.25" r="243.16666" gradientUnits="userSpaceOnUse" id="color-1"><stop offset="0" stop-color="#9ccc60"/><stop offset="1" stop-color="#77ba58"/></radialGradient><radialGradient cx="265" cy="195" r="165.69543" gradientUnits="userSpaceOnUse" id="color-2"><stop offset="0" stop-color="#d1c086"/><stop offset="1" stop-color="#a09366"/></radialGradient></defs><g transform="translate(2,3.75)"><g data-paper-data="{&quot;isPaintingLayer&quot;:true}" fill="none" fill-rule="nonzero" stroke="none" stroke-width="none" stroke-linecap="none" stroke-linejoin="miter" stroke-miterlimit="10" stroke-dasharray="" stroke-dashoffset="0" font-family="none" font-weight="none" font-size="none" text-anchor="none" style="mix-blend-mode: normal"><g><path d="M484.33333,-3.75v364.75h-486.33333v-364.75z" data-paper-data="{&quot;origPos&quot;:null,&quot;index&quot;:null}" fill="url(#color-1)" stroke="none" stroke-width="2" stroke-linecap="butt"/><path d="M481,-1.75001l0.08224,361.13584l-422.73581,0.00382l-12.60228,-133.98313c0,0 14.91005,-68.63641 10.55131,-87.54521c-3.14583,-13.64701 11.81813,-76.95133 5.28552,-94.64078c-6.03796,-16.35004 -7.34212,-44.05277 -7.34212,-44.05277z" data-paper-data="{&quot;origPos&quot;:null,&quot;index&quot;:null}" fill="#49c46c" stroke="#43b63b" stroke-width="2.5" stroke-linecap="butt"/><path d="M20,319.25l28,28" data-paper-data="{&quot;index&quot;:null}" fill="none" stroke="#43b63b" stroke-width="2.5" stroke-linecap="round"/><path d="M23,248.25l19,19" data-paper-data="{&quot;index&quot;:null}" fill="none" stroke="#43b63b" stroke-width="2.5" stroke-linecap="round"/><path d="M49,201.25l-18,-18" data-paper-data="{&quot;index&quot;:null}" fill="none" stroke="#43b63b" stroke-width="2.5" stroke-linecap="round"/><path d="M27,137.25l-7.5,-7.5" data-paper-data="{&quot;index&quot;:null}" fill="none" stroke="#43b63b" stroke-width="2.5" stroke-linecap="round"/><path d="M62,73.25l-41,-41" data-paper-data="{&quot;index&quot;:null}" fill="none" stroke="#43b63b" stroke-width="2.5" stroke-linecap="round"/><path d="M77.5,297.75l14.5,14.5" data-paper-data="{&quot;index&quot;:null,&quot;origPos&quot;:null}" fill="none" stroke="#42b17d" stroke-width="2.5" stroke-linecap="round"/><path d="M132,221.25l-39,-39" data-paper-data="{&quot;index&quot;:null,&quot;origPos&quot;:null}" fill="none" stroke="#42b17d" stroke-width="2.5" stroke-linecap="round"/><path d="M167,328.25l-24,-24" data-paper-data="{&quot;index&quot;:null,&quot;origPos&quot;:null}" fill="none" stroke="#42b17d" stroke-width="2.5" stroke-linecap="round"/><path d="M229.5,302.75l11.5,11.5" data-paper-data="{&quot;index&quot;:null}" fill="none" stroke="#42b17d" stroke-width="2.5" stroke-linecap="round"/><path d="M367,95.25l-34,-34" data-paper-data="{&quot;index&quot;:null,&quot;origPos&quot;:null}" fill="none" stroke="#42b17d" stroke-width="2.5" stroke-linecap="round"/><path d="M172.5,138.75l20.5,20.5" data-paper-data="{&quot;index&quot;:null,&quot;origPos&quot;:null}" fill="none" stroke="#36b67b" stroke-width="2.5" stroke-linecap="round"/><path d="M236,117.25l-78,-78" data-paper-data="{&quot;index&quot;:null,&quot;origPos&quot;:null}" fill="none" stroke="#36b67b" stroke-width="2.5" stroke-linecap="round"/><path d="M109,218.25l-5,-5" data-paper-data="{&quot;index&quot;:null}" fill="none" stroke="#36b67b" stroke-width="2.5" stroke-linecap="round"/><path d="M231.5,218.75l19.5,19.5" data-paper-data="{&quot;index&quot;:null}" fill="none" stroke="#36b67b" stroke-width="2.5" stroke-linecap="round"/><path d="M318,288.25v38" data-paper-data="{&quot;index&quot;:null,&quot;origPos&quot;:null}" fill="none" stroke="#36b67b" stroke-width="2.5" stroke-linecap="round"/><path d="M223,167.25l40.5,-40.5" data-paper-data="{&quot;index&quot;:null}" fill="none" stroke="#36b67b" stroke-width="2.5" stroke-linecap="round"/><path d="M355,227.25l-29.5,-29.5" data-paper-data="{&quot;index&quot;:null,&quot;origPos&quot;:null}" fill="none" stroke="#36b67b" stroke-width="2.5" stroke-linecap="round"/><path d="M163,266.25l11,-11" data-paper-data="{&quot;index&quot;:null}" fill="none" stroke="#36b67b" stroke-width="2.5" stroke-linecap="round"/><path d="M70,259.25l18.5,-18.5" data-paper-data="{&quot;index&quot;:null}" fill="none" stroke="#36b67b" stroke-width="2.5" stroke-linecap="round"/><path d="M136,25.25l-27,27" data-paper-data="{&quot;index&quot;:null}" fill="none" stroke="#36b67b" stroke-width="2.5" stroke-linecap="round"/><path d="M328.5,102.75l-29.5,29.5" data-paper-data="{&quot;index&quot;:null,&quot;origPos&quot;:null}" fill="none" stroke="#36b67b" stroke-width="2.5" stroke-linecap="round"/><path d="M366,181.25l38,-38" data-paper-data="{&quot;index&quot;:null,&quot;origPos&quot;:null}" fill="none" stroke="#36b67b" stroke-width="2.5" stroke-linecap="round"/><path d="M229,25.25l-29,29" data-paper-data="{&quot;index&quot;:null,&quot;origPos&quot;:null}" fill="none" stroke="#36b67b" stroke-width="2.5" stroke-linecap="round"/><path d="M434,228.25l-40,40" data-paper-data="{&quot;index&quot;:null,&quot;origPos&quot;:null}" fill="none" stroke="#36b67b" stroke-width="2.5" stroke-linecap="round"/><path d="M326,232.25h-49" data-paper-data="{&quot;index&quot;:null,&quot;origPos&quot;:null}" fill="none" stroke="#36b67b" stroke-width="2.5" stroke-linecap="round"/><path d="M401,306.25l-28,28" data-paper-data="{&quot;index&quot;:null,&quot;origPos&quot;:null}" fill="none" stroke="#36b67b" stroke-width="2.5" stroke-linecap="round"/><path d="M441,83.25l-21.5,-21.5" data-paper-data="{&quot;index&quot;:null,&quot;origPos&quot;:null}" fill="none" stroke="#36b67b" stroke-width="2.5" stroke-linecap="round"/><path d="M318,10.25l18,18" data-paper-data="{&quot;index&quot;:null}" fill="none" stroke="#36b67b" stroke-width="2.5" stroke-linecap="round"/><path d="M446,209.25l15.5,15.5" data-paper-data="{&quot;index&quot;:null,&quot;origPos&quot;:null}" fill="none" stroke="#36b67b" stroke-width="2.5" stroke-linecap="round"/></g><g><g data-paper-data="{&quot;origPos&quot;:null}"><path d="M89.47844,317.73069c0,0 -3.45199,-5.28552 -3.45199,-9.81016c0,-13.57391 -1,-155.32848 -1,-257.30684c0,-4.87268 2.58899,-8.91832 2.58899,-8.91832c0,0 4.25162,-3.56733 8.62996,-3.56733c136.06545,0 323.48461,-2 339.65079,-2c5.38873,0 10.35597,2.6755 10.35597,2.6755c0,0 3.45198,4.93747 3.45198,9.81015c0,101.28226 9,245.86097 9,261.52318c0,5.22074 -3.45198,10.70199 -3.45198,10.70199c0,0 -4.44103,2.67549 -9.49297,2.67549c0,0 -333.50537,-4 -347.65079,-4c-4.71514,0 -8.62996,-1.78366 -8.62996,-1.78366z" data-paper-data="{&quot;origPos&quot;:null}" fill="#c0a946" stroke="#918034" stroke-width="6" stroke-linecap="butt"/><path d="M110.60138,299.11037l-4,-243.14569l320.39086,-2l11,248.1457z" data-paper-data="{&quot;origPos&quot;:null}" fill="url(#color-2)" stroke="#918034" stroke-width="6" stroke-linecap="butt"/><path d="M236.87997,335.78819c0,0 -0.67961,-0.62765 -0.67961,-1.16495c0,-1.6119 0,-18.92026 0,-31.03018c0,-0.57863 0.50971,-1.05905 0.50971,-1.05905c0,0 0.83704,-0.42362 1.69903,-0.42362c26.78788,0 65.45791,0 68.64062,0c1.0609,0 2.03883,0.31771 2.03883,0.31771c0,0 0.67962,0.58633 0.67962,1.16496c0,12.02727 0,28.95849 0,30.81838c0,0.61996 -0.67962,1.27086 -0.67962,1.27086c0,0 -0.87433,0.31771 -1.86893,0.31771c0,0 -21.47471,9 -35.21961,9c-13.04298,0 -20.37803,-9 -33.42101,-9c-0.9283,0 -1.69903,-0.21181 -1.69903,-0.21181z" data-paper-data="{&quot;origPos&quot;:null}" fill="#a39262" stroke="#80765f" stroke-width="6" stroke-linecap="butt"/><path d="M105.97753,129.63409c0,0 -0.69373,0.67962 -1.28759,0.67962c-1.78158,0 -20.91187,0 -34.29652,0c-0.63954,0 -1.17053,-0.50971 -1.17053,-0.50971c0,0 -0.46821,-0.83703 -0.46821,-1.69902c0,-13.3099 -8,-20.79507 -8,-34.10497c0,-13.47799 8,-21.05767 8,-34.53565c0,-1.0609 0.35116,-2.03884 0.35116,-2.03884c0,0 0.64805,-0.67961 1.28758,-0.67961c13.2933,0 32.00676,0 34.06242,0c0.68521,0 1.40463,0.67961 1.40463,0.67961c0,0 0.35116,0.87434 0.35116,1.86894c0,0 0,65.85574 0,68.64062c0,0.9283 -0.2341,1.69903 -0.2341,1.69903z" data-paper-data="{&quot;origPos&quot;:null,&quot;origRot&quot;:0}" fill="#a39262" stroke="#80765f" stroke-width="6" stroke-linecap="butt"/><path d="M469.4963,225.1479c0,0 -0.65857,0.69768 -1.23807,0.71337c-1.73852,0.04705 -20.40648,0.55228 -33.46768,0.90575c-0.62408,0.01689 -1.15604,-0.47861 -1.15604,-0.47861c0,0 -0.47954,-0.82437 -0.50286,-1.68604c-0.72471,-26.77808 -1.77087,-65.43395 -1.85698,-68.6155c-0.0287,-1.06052 0.28751,-2.04736 0.28751,-2.04736c0,0 0.614,-0.69648 1.23808,-0.71337c12.97204,-0.35107 31.23327,-0.84528 33.23925,-0.89957c0.66866,-0.01809 1.38907,0.64227 1.38907,0.64227c0,0 0.36633,0.86474 0.39324,1.85897c0,0 6.54663,20.19796 6.8965,33.12568c0.37484,13.85036 -5.41436,21.63946 -5.03952,35.48981c0.02512,0.92796 -0.18248,1.70459 -0.18248,1.70459z" data-paper-data="{&quot;origPos&quot;:null,&quot;origRot&quot;:0}" fill="#a39262" stroke="#80765f" stroke-width="6" stroke-linecap="butt"/><path d="M242,310.5c0,10.21727 -5.14873,18.5 -11.5,18.5c-6.35127,0 -11.5,-8.28273 -11.5,-18.5c0,-10.21727 5.14873,-18.5 11.5,-18.5c6.35127,0 11.5,8.28273 11.5,18.5z" data-paper-data="{&quot;origPos&quot;:null}" fill="#918157" stroke="#675836" stroke-width="6" stroke-linecap="butt"/><path d="M327,311.5c0,10.21727 -5.14873,18.5 -11.5,18.5c-6.35127,0 -11.5,-8.28273 -11.5,-18.5c0,-10.21727 5.14873,-18.5 11.5,-18.5c6.35127,0 11.5,8.28273 11.5,18.5z" data-paper-data="{&quot;origPos&quot;:null}" fill="#918157" stroke="#675836" stroke-width="6" stroke-linecap="butt"/><path d="M97.5,123c10.21727,0 18.5,5.14873 18.5,11.5c0,6.35127 -8.28273,11.5 -18.5,11.5c-10.21727,0 -18.5,-5.14873 -18.5,-11.5c0,-6.35127 8.28273,-11.5 18.5,-11.5z" data-paper-data="{&quot;origPos&quot;:null,&quot;origRot&quot;:0}" fill="#918157" stroke="#675836" stroke-width="6" stroke-linecap="butt"/><path d="M98.5,38c10.21727,0 18.5,5.14872 18.5,11.5c0,6.35128 -8.28273,11.5 -18.5,11.5c-10.21727,0 -18.5,-5.14872 -18.5,-11.5c0,-6.35128 8.28273,-11.5 18.5,-11.5z" data-paper-data="{&quot;origPos&quot;:null,&quot;origRot&quot;:0}" fill="#918157" stroke="#675836" stroke-width="6" stroke-linecap="butt"/><path d="M444.36097,219.00193c10.21333,-0.2837 18.63583,4.63305 18.81219,10.98188c0.17636,6.34883 -7.96022,11.72555 -18.17354,12.00926c-10.21333,0.2837 -18.63583,-4.63305 -18.81219,-10.98188c-0.17636,-6.34883 7.96022,-11.72555 18.17354,-12.00926z" data-paper-data="{&quot;origPos&quot;:null,&quot;origRot&quot;:0}" fill="#918157" stroke="#675836" stroke-width="6" stroke-linecap="butt"/><path d="M443.00039,134.00694c10.21333,-0.2837 18.63583,4.63305 18.81219,10.98188c0.17636,6.34883 -7.96022,11.72555 -18.17354,12.00926c-10.21333,0.2837 -18.63583,-4.63305 -18.81219,-10.98188c-0.17636,-6.34883 7.96022,-11.72555 18.17354,-12.00926z" data-paper-data="{&quot;origPos&quot;:null,&quot;origRot&quot;:0}" fill="#918157" stroke="#675836" stroke-width="6" stroke-linecap="butt"/><path d="M100,178l-5,25" data-paper-data="{&quot;origPos&quot;:null}" fill="none" stroke="#918034" stroke-width="2.5" stroke-linecap="round"/><path d="M102,243l-4,7l-9,-14" data-paper-data="{&quot;origPos&quot;:null}" fill="none" stroke="#918034" stroke-width="2.5" stroke-linecap="round"/><path d="M107,283l-10,6" data-paper-data="{&quot;origPos&quot;:null}" fill="none" stroke="#918034" stroke-width="2.5" stroke-linecap="round"/><path d="M126,318l12,-9" data-paper-data="{&quot;origPos&quot;:null}" fill="none" stroke="#918034" stroke-width="2.5" stroke-linecap="round"/><path d="M148,306l24,3" data-paper-data="{&quot;origPos&quot;:null}" fill="none" stroke="#918034" stroke-width="2.5" stroke-linecap="round"/><path d="M353,311l17,-7" data-paper-data="{&quot;origPos&quot;:null}" fill="none" stroke="#918034" stroke-width="2.5" stroke-linecap="round"/><path d="M389,303l6,13" data-paper-data="{&quot;origPos&quot;:null}" fill="none" stroke="#918034" stroke-width="2.5" stroke-linecap="round"/><path d="M434,303l13,4" data-paper-data="{&quot;origPos&quot;:null}" fill="none" stroke="#918034" stroke-width="2.5" stroke-linecap="round"/><path d="M448,274l9,-10" data-paper-data="{&quot;origPos&quot;:null}" fill="none" stroke="#918034" stroke-width="2.5" stroke-linecap="round"/><path d="M431,107l12,-15" data-paper-data="{&quot;origPos&quot;:null}" fill="none" stroke="#918034" stroke-width="2.5" stroke-linecap="round"/><path d="M448,67l-10,1" data-paper-data="{&quot;origPos&quot;:null}" fill="none" stroke="#918034" stroke-width="2.5" stroke-linecap="round"/><path d="M400,40l16,5" data-paper-data="{&quot;origPos&quot;:null}" fill="none" stroke="#918034" stroke-width="2.5" stroke-linecap="round"/><path d="M318,45l-1,7" data-paper-data="{&quot;origPos&quot;:null}" fill="none" stroke="#918034" stroke-width="2.5" stroke-linecap="round"/><path d="M335,47l5,-9" data-paper-data="{&quot;origPos&quot;:null}" fill="none" stroke="#918034" stroke-width="2.5" stroke-linecap="round"/><path d="M235,49l27,-2" data-paper-data="{&quot;origPos&quot;:null}" fill="none" stroke="#918034" stroke-width="2.5" stroke-linecap="round"/><path d="M287,43l-7,-3" data-paper-data="{&quot;origPos&quot;:null}" fill="none" stroke="#918034" stroke-width="2.5" stroke-linecap="round"/><path d="M141,48l-7,8" data-paper-data="{&quot;origPos&quot;:null}" fill="none" stroke="#918034" stroke-width="2.5" stroke-linecap="round"/><path d="M172,40l10,8" data-paper-data="{&quot;origPos&quot;:null}" fill="none" stroke="#918034" stroke-width="2.5" stroke-linecap="round"/><path d="M207,39l-3,7" data-paper-data="{&quot;origPos&quot;:null}" fill="none" stroke="#918034" stroke-width="2.5" stroke-linecap="round"/><path d="M207,319l-2,-11" data-paper-data="{&quot;origPos&quot;:null}" fill="none" stroke="#918034" stroke-width="2.5" stroke-linecap="round"/><path d="M428,316l-2,6" data-paper-data="{&quot;origPos&quot;:null}" fill="none" stroke="#918034" stroke-width="2.5" stroke-linecap="round"/><path d="M137,112l22,-20" data-paper-data="{&quot;origPos&quot;:null}" fill="none" stroke="#877948" stroke-width="2.5" stroke-linecap="round"/><path d="M138,155l15,-14" data-paper-data="{&quot;origPos&quot;:null}" fill="none" stroke="#877948" stroke-width="2.5" stroke-linecap="round"/><path d="M183,105l32,-25" data-paper-data="{&quot;origPos&quot;:null}" fill="none" stroke="#877948" stroke-width="2.5" stroke-linecap="round"/><path d="M239,108l-23,-11" data-paper-data="{&quot;origPos&quot;:null}" fill="none" stroke="#877948" stroke-width="2.5" stroke-linecap="round"/><path d="M201,153l-12,16" data-paper-data="{&quot;origPos&quot;:null}" fill="none" stroke="#877948" stroke-width="2.5" stroke-linecap="round"/><path d="M276,176l24,11" data-paper-data="{&quot;origPos&quot;:null}" fill="none" stroke="#877948" stroke-width="2.5" stroke-linecap="round"/><path d="M141,237l36,-13" data-paper-data="{&quot;origPos&quot;:null}" fill="none" stroke="#877948" stroke-width="2.5" stroke-linecap="round"/><path d="M208,269l-17,-13" data-paper-data="{&quot;origPos&quot;:null}" fill="none" stroke="#877948" stroke-width="2.5" stroke-linecap="round"/><path d="M242,208l2,-22" data-paper-data="{&quot;origPos&quot;:null}" fill="none" stroke="#877948" stroke-width="2.5" stroke-linecap="round"/><path d="M289,244l24,18" data-paper-data="{&quot;origPos&quot;:null}" fill="none" stroke="#877948" stroke-width="2.5" stroke-linecap="round"/><path d="M254,237l-9,9" data-paper-data="{&quot;origPos&quot;:null}" fill="none" stroke="#877948" stroke-width="2.5" stroke-linecap="round"/><path d="M317,217h23" data-paper-data="{&quot;origPos&quot;:null}" fill="none" stroke="#877948" stroke-width="2.5" stroke-linecap="round"/><path d="M333,162l8,-15" data-paper-data="{&quot;origPos&quot;:null}" fill="none" stroke="#877948" stroke-width="2.5" stroke-linecap="round"/><path d="M288,139l-6,-18" data-paper-data="{&quot;origPos&quot;:null}" fill="none" stroke="#877948" stroke-width="2.5" stroke-linecap="round"/><path d="M347,108l5,-13" data-paper-data="{&quot;origPos&quot;:null}" fill="none" stroke="#877948" stroke-width="2.5" stroke-linecap="round"/><path d="M378,143l19,1" data-paper-data="{&quot;origPos&quot;:null}" fill="none" stroke="#877948" stroke-width="2.5" stroke-linecap="round"/><path d="M382,199l11,29" data-paper-data="{&quot;origPos&quot;:null}" fill="none" stroke="#877948" stroke-width="2.5" stroke-linecap="round"/><path d="M369,265l-8,10" data-paper-data="{&quot;origPos&quot;:null}" fill="none" stroke="#877948" stroke-width="2.5" stroke-linecap="round"/><path d="M417,273l-15,-7" data-paper-data="{&quot;origPos&quot;:null}" fill="none" stroke="#877948" stroke-width="2.5" stroke-linecap="round"/><path d="M394,90l1,-14" data-paper-data="{&quot;origPos&quot;:null}" fill="none" stroke="#877948" stroke-width="2.5" stroke-linecap="round"/><path d="M308,84l-19,-11" data-paper-data="{&quot;origPos&quot;:null}" fill="none" stroke="#877948" stroke-width="2.5" stroke-linecap="round"/><path d="M249,147l-11,6" data-paper-data="{&quot;origPos&quot;:null}" fill="none" stroke="#877948" stroke-width="2.5" stroke-linecap="round"/><path d="M167,194l20,7" data-paper-data="{&quot;origPos&quot;:null}" fill="none" stroke="#877948" stroke-width="2.5" stroke-linecap="round"/><path d="M130,273l4,8" data-paper-data="{&quot;origPos&quot;:null}" fill="none" stroke="#877948" stroke-width="2.5" stroke-linecap="round"/><path d="M273,267l-13,7" data-paper-data="{&quot;origPos&quot;:null}" fill="none" stroke="#877948" stroke-width="2.5" stroke-linecap="round"/><path d="M140,180l10,8" data-paper-data="{&quot;origPos&quot;:null}" fill="none" stroke="#968750" stroke-width="2" stroke-linecap="round"/><path d="M214,148l-9,-17" data-paper-data="{&quot;origPos&quot;:null}" fill="none" stroke="#968750" stroke-width="2" stroke-linecap="round"/><path d="M160,71l12,5" data-paper-data="{&quot;origPos&quot;:null}" fill="none" stroke="#968750" stroke-width="2" stroke-linecap="round"/><path d="M278,101l-15,13" data-paper-data="{&quot;origPos&quot;:null}" fill="none" stroke="#968750" stroke-width="2" stroke-linecap="round"/><path d="M324,127l19,1" data-paper-data="{&quot;origPos&quot;:null}" fill="none" stroke="#968750" stroke-width="2" stroke-linecap="round"/><path d="M319,177l7,12" data-paper-data="{&quot;origPos&quot;:null}" fill="none" stroke="#968750" stroke-width="2" stroke-linecap="round"/><path d="M286,220l-11,-8" data-paper-data="{&quot;origPos&quot;:null}" fill="none" stroke="#968750" stroke-width="2" stroke-linecap="round"/><path d="M217,211l-9,18" data-paper-data="{&quot;origPos&quot;:null}" fill="none" stroke="#968750" stroke-width="2" stroke-linecap="round"/><path d="M352,243l16,-11" data-paper-data="{&quot;origPos&quot;:null}" fill="none" stroke="#968750" stroke-width="2" stroke-linecap="round"/><path d="M370,166l18,3" data-paper-data="{&quot;origPos&quot;:null}" fill="none" stroke="#968750" stroke-width="2" stroke-linecap="round"/><path d="M377,90l2,12" data-paper-data="{&quot;origPos&quot;:null}" fill="none" stroke="#968750" stroke-width="2" stroke-linecap="round"/><path d="M334,78l-14,13" data-paper-data="{&quot;origPos&quot;:null}" fill="none" stroke="#968750" stroke-width="2" stroke-linecap="round"/><path d="M154,264l18,12" data-paper-data="{&quot;origPos&quot;:null}" fill="none" stroke="#968750" stroke-width="2" stroke-linecap="round"/><path d="M242,277l-10,-14" data-paper-data="{&quot;origPos&quot;:null}" fill="none" stroke="#968750" stroke-width="2" stroke-linecap="round"/><path d="M331,256l-12,20" data-paper-data="{&quot;origPos&quot;:null}" fill="none" stroke="#968750" stroke-width="2" stroke-linecap="round"/><path d="M282,159l14,-9" data-paper-data="{&quot;origPos&quot;:null}" fill="none" stroke="#968750" stroke-width="2" stroke-linecap="round"/><path d="M250,326l9,12" data-paper-data="{&quot;origPos&quot;:null}" fill="none" stroke="#968750" stroke-width="2" stroke-linecap="round"/><path d="M266,320l9,-5" data-paper-data="{&quot;origPos&quot;:null}" fill="none" stroke="#968750" stroke-width="2" stroke-linecap="round"/><path d="M296,334l-6,-7" data-paper-data="{&quot;origPos&quot;:null}" fill="none" stroke="#968750" stroke-width="2" stroke-linecap="round"/><path d="M448,209l12,-4" data-paper-data="{&quot;origPos&quot;:null}" fill="none" stroke="#968750" stroke-width="2" stroke-linecap="round"/><path d="M439,177l14,-1" data-paper-data="{&quot;origPos&quot;:null}" fill="none" stroke="#968750" stroke-width="2" stroke-linecap="round"/><path d="M460,184l10,-5" data-paper-data="{&quot;origPos&quot;:null}" fill="none" stroke="#968750" stroke-width="2" stroke-linecap="round"/><path d="M72,72l10,3" data-paper-data="{&quot;origPos&quot;:null}" fill="none" stroke="#968750" stroke-width="2" stroke-linecap="round"/><path d="M63,92l12,-1" data-paper-data="{&quot;origPos&quot;:null}" fill="none" stroke="#968750" stroke-width="2" stroke-linecap="round"/><path d="M103,83l-11,2" data-paper-data="{&quot;origPos&quot;:null}" fill="none" stroke="#968750" stroke-width="2" stroke-linecap="round"/><path d="M81,109l14,4" data-paper-data="{&quot;origPos&quot;:null}" fill="none" stroke="#968750" stroke-width="2" stroke-linecap="round"/></g><path d="M312.28738,148c0,0 -6.26887,-4.22347 -6.32782,-7.83903c-0.17685,-10.8467 -1.27436,-70.55845 -1.27436,-70.55845c0,0 4.78041,-7.59823 7.84012,-7.59581c9.17912,0.00726 60.5492,0.18883 99.30327,0.03129c3.61579,-0.0147 9.265,5.18884 9.265,5.18884c0,0 2.11787,63.75178 1.7444,71.13825c-0.12449,2.46215 -5.54549,7.73438 -5.54549,7.73438z" data-paper-data="{&quot;origPos&quot;:null}" fill="#a2863a" stroke="#897131" stroke-width="5" stroke-linecap="butt"/><path d="M365.14522,88.88235c-0.38235,0.64522 -0.92377,0.31401 -0.92377,0.31401c-0.41667,-0.16666 -1.38697,-0.55479 -1.80364,-0.72146c-4.04654,-1.64177 -8.8594,-4.35582 -11.94815,-7.44457c0,0 -0.53033,-0.53033 0,-1.06066c0.53033,-0.53033 1.06066,0 1.06066,0c2.92419,2.92419 7.58972,5.59764 11.44457,7.11252c0.41667,0.16666 0.83333,0.33334 1.25,0.5l0.55365,0.22146c0,0 0.74902,0.43349 0.36667,1.07871z" data-paper-data="{&quot;origPos&quot;:null}" fill="#897131" stroke="none" stroke-width="0.5" stroke-linecap="butt"/><path d="M366.16329,102.85007c-0.35007,0.66329 -0.9987,0.32075 -0.9987,0.32075l-0.5,-0.25c-1.65942,-0.82974 -3.31241,-1.67249 -4.96799,-2.50986c-4.26164,-2.1555 -8.6369,-4.13644 -12.61262,-6.78692c0,0 -0.62404,-0.41603 -0.20801,-1.04006c0.41602,-0.62404 1.04006,-0.20801 1.04006,-0.20801c3.92498,2.61665 8.24972,4.56818 12.45758,6.69647c1.65352,0.83634 3.30443,1.67808 4.96181,2.50674l0.5,0.25c0,0 0.67795,0.3576 0.32788,1.02089z" data-paper-data="{&quot;origPos&quot;:null}" fill="#897131" stroke="none" stroke-width="0.5" stroke-linecap="butt"/><path d="M371.06056,125.99828c-0.49827,0.56055 -1.05883,0.06228 -1.05883,0.06228l-0.1634,-0.69718c-1.73305,-2.44795 -4.96893,-4.07148 -7.42442,-5.80714c-4.20847,-2.97474 -7.79574,-5.25207 -10.5499,-9.65873c0,0 -0.3975,-0.636 0.2385,-1.0335c0.636,-0.3975 1.0335,0.2385 1.0335,0.2385c0.7438,1.19008 1.42404,2.79894 2.385,3.81599c1.98584,2.10178 5.37532,3.72814 7.75872,5.41284c2.61131,1.84579 5.92707,3.544 7.78286,6.16532l-0.0643,0.4428c0,0 0.56056,0.49828 0.06228,1.05883z" data-paper-data="{&quot;origPos&quot;:null}" fill="#897131" stroke="none" stroke-width="0.5" stroke-linecap="butt"/><path d="M362.69416,128.78398c-0.28397,0.69416 -0.97814,0.41019 -0.97814,0.41019l-0.22841,-0.07619c-3.71518,-1.26293 -7.31644,-2.69386 -10.82302,-4.44715c0,0 -0.67082,-0.33541 -0.33541,-1.00623c0.33541,-0.67082 1.00623,-0.33541 1.00623,-0.33541c3.44681,1.7234 6.98256,3.12701 10.63498,4.36861l0.31358,0.10806c0,0 0.69416,0.28397 0.41019,0.97813z" data-paper-data="{&quot;origPos&quot;:null}" fill="#897131" stroke="none" stroke-width="0.5" stroke-linecap="butt"/><path d="M385.04892,87.01107c-0.51106,0.54892 -1.05998,0.03785 -1.05998,0.03785l-0.33894,-0.74892c-1.36332,-1.02249 -2.73923,-2.03037 -4.08441,-3.07662c-3.67086,-2.85511 -7.58348,-5.89814 -10.18962,-9.80736c0,0 -0.41602,-0.62404 0.20801,-1.04006c0.62404,-0.41603 1.04006,0.20801 1.04006,0.20801c2.51481,3.7722 6.31966,6.69987 9.86246,9.45538c1.33826,1.04086 2.7072,2.04342 4.0635,3.06065l0.46106,0.85108c0,0 0.54892,0.51107 0.03786,1.05998z" data-paper-data="{&quot;origPos&quot;:null}" fill="#897131" stroke="none" stroke-width="0.5" stroke-linecap="butt"/><path d="M389.02157,106.03895c-0.53895,0.52156 -1.06052,-0.01739 -1.06052,-0.01739l-0.43072,-0.43057c-1.58126,-1.58127 -3.16242,-3.16265 -4.74359,-4.744c-3.38225,-3.38263 -6.74241,-6.72616 -9.85618,-10.3589c0,0 -0.48809,-0.56944 0.08134,-1.05754c0.56944,-0.4881 1.05753,0.08134 1.05753,0.08134c3.08882,3.60362 6.42272,6.91881 9.77802,10.27448c1.58116,1.58133 3.16228,3.1627 4.74353,4.74394l0.44796,0.4481c0,0 0.52157,0.53895 -0.01738,1.06051z" data-paper-data="{&quot;origPos&quot;:null}" fill="#897131" stroke="none" stroke-width="0.5" stroke-linecap="butt"/><path d="M389.04375,122.51656c-0.51656,0.54375 -1.06031,0.02719 -1.06031,0.02719l-0.01278,-0.51243c-3.15767,-3.14592 -6.65789,-5.9908 -9.97239,-8.97385c0,0 -0.55747,-0.50172 -0.05575,-1.05919c0.50173,-0.55747 1.0592,-0.05575 1.0592,-0.05575c3.33348,3.00012 6.85176,5.8621 10.02761,9.02615l-0.01278,0.48757c0,0 0.54375,0.51656 0.02719,1.06031z" data-paper-data="{&quot;origPos&quot;:null}" fill="#897131" stroke="none" stroke-width="0.5" stroke-linecap="butt"/><path d="M342.18333,83.80912c-0.30912,0.68333 -0.94668,0.39312 -0.94668,0.39312l-0.59551,-0.22331c-2.71002,-1.01626 -5.35472,-2.12873 -8.00617,-3.28874c-4.18271,-1.82994 -8.74967,-3.53193 -12.551,-6.06615c0,0 -0.62404,-0.41603 -0.20801,-1.04006c0.41602,-0.62404 1.04006,-0.20801 1.04006,-0.20801c3.72656,2.48437 8.21864,4.14557 12.32018,5.93999c2.62705,1.14933 5.24664,2.25161 7.93163,3.25848l0.59551,0.22331c0,0 0.72911,0.32804 0.41998,1.01137z" data-paper-data="{&quot;origPos&quot;:null}" fill="#897131" stroke="none" stroke-width="0.5" stroke-linecap="butt"/><path d="M320.83767,92.14814c0.35186,-0.66233 1.0142,-0.31047 1.0142,-0.31047l0.17714,0.00241c1.28273,0.25362 2.61672,0.3974 3.7991,0.96855c3.92374,1.89539 7.83128,3.75704 11.10693,6.63502l0.03463,-0.03464l1.06066,1.06066c0.06446,0.06445 0.11724,0.1406 0.15489,0.22496c0.10055,0.20381 0.16105,0.51976 -0.15489,0.8357c-0.31004,0.31004 -0.62008,0.25757 -0.82416,0.16048l-1.16053,-0.4352l0.16737,-0.44632c-3.22453,-2.93 -7.12833,-4.76172 -11.03735,-6.65c-1.06216,-0.51309 -2.28046,-0.61891 -3.43761,-0.84771l-0.58991,-0.14925c0,0 -0.66233,-0.35187 -0.31047,-1.0142z" data-paper-data="{&quot;origPos&quot;:null}" fill="#897131" stroke="none" stroke-width="0.5" stroke-linecap="butt"/><path d="M324.64784,112.87791c-0.3779,0.64784 -0.98325,0.29292 -0.98325,0.29292l-0.5,-0.25c-1.90546,-0.96128 -3.70871,-2.1721 -5.53875,-3.27067c-0.08249,-0.04757 -0.15507,-0.11039 -0.2139,-0.18461c-0.14519,-0.16969 -0.28109,-0.45496 -0.06776,-0.82968c0.00745,-0.0134 0.01531,-0.02655 0.02355,-0.03942c0.22958,-0.36683 0.54515,-0.3827 0.76385,-0.33493c0.00974,0.00172 0.01941,0.00364 0.02902,0.00573l1.4564,0.28796l-0.09551,0.48305l0.15063,0.09038l-0.0083,0.01383c1.36753,0.85364 2.73861,1.7281 4.1716,2.43672l0.5,0.25c0,0 0.69033,0.40089 0.31242,1.04873z" data-paper-data="{&quot;origPos&quot;:null}" fill="#897131" stroke="none" stroke-width="0.5" stroke-linecap="butt"/><path d="M347.19636,131.27855c-0.27855,0.69636 -0.97491,0.41781 -0.97491,0.41781l-0.84799,-0.13798c-2.09426,-0.83039 -4.3043,-1.30775 -6.39453,-2.16735c-4.28189,-1.7609 -8.31807,-4.21351 -12.7161,-5.67952c0,0 -0.71151,-0.23717 -0.47434,-0.94868c0.23717,-0.71151 0.94868,-0.47434 0.94868,-0.47434c4.43293,1.47764 8.49765,3.94091 12.81227,5.71527c2.08382,0.85696 4.28753,1.33178 6.37691,2.16023l0.8522,0.13965c0,0 0.69636,0.27855 0.41782,0.97491z" data-paper-data="{&quot;origPos&quot;:null}" fill="#897131" stroke="none" stroke-width="0.5" stroke-linecap="butt"/><path d="M425.01958,103.53004c0,13.17327 4.09209,27.46813 -2.29151,34.6904c-4.73501,5.35709 -13.26195,0.69262 -18.92371,0.69262c-5.90432,0 -13.15202,6.44474 -18.08358,0.84159c-6.33666,-7.19959 -3.84475,-23.13151 -3.84475,-36.22461c0,-12.88712 -4.2469,-24.60833 1.31417,-33.20874c4.65895,-7.20525 13.64515,-5.25106 19.90105,-5.25106c0,0 14.51662,-6.87879 19.3472,0.05212c5.86725,8.41832 2.58114,10.03002 2.58114,38.40769z" data-paper-data="{&quot;origPos&quot;:null}" fill="#dad3bf" stroke="#b5af9f" stroke-width="5" stroke-linecap="butt"/><path d="M116.71467,199c0,0 -4.14737,-1.66954 -4.18637,-3.09878c-0.117,-4.28772 -0.8431,-27.89188 -0.8431,-27.89188c0,0 3.16263,-3.00359 5.18688,-3.00263c6.07274,0.00287 40.05825,0.07464 65.69724,0.01237c2.39214,-0.00581 6.12956,2.05116 6.12956,2.05116c0,0 1.40114,25.20119 1.15406,28.12107c-0.08236,0.9733 -3.66879,3.05741 -3.66879,3.05741z" data-paper-data="{&quot;origPos&quot;:null}" fill="#a2863a" stroke="#897131" stroke-width="5" stroke-linecap="butt"/><path d="M113.5,189h23" data-paper-data="{&quot;origPos&quot;:null}" fill="none" stroke="#897131" stroke-width="5" stroke-linecap="round"/><path d="M152.5,176.5h34.5" data-paper-data="{&quot;origPos&quot;:null}" fill="none" stroke="#897131" stroke-width="5" stroke-linecap="round"/></g></g></g></svg>