<svg version="1.1" xmlns="http://www.w3.org/2000/svg" xmlns:xlink="http://www.w3.org/1999/xlink" width="481.09678" height="361.8113" viewBox="0,0,481.09678,361.8113"><defs><radialGradient cx="240.44923" cy="189.91428" r="239.86727" gradientUnits="userSpaceOnUse" id="color-1"><stop offset="0" stop-color="#5180ff"/><stop offset="1" stop-color="#93acf2"/></radialGradient></defs><g transform="translate(1.11114,0.31991)"><g data-paper-data="{&quot;isPaintingLayer&quot;:true}" fill="none" fill-rule="nonzero" stroke="none" stroke-width="none" stroke-linecap="none" stroke-linejoin="miter" stroke-miterlimit="10" stroke-dasharray="" stroke-dashoffset="0" font-family="none" font-weight="none" font-size="none" text-anchor="none" style="mix-blend-mode: normal"><path d="M0.2511,361.49139v-361.75h479.73454v361.75z" data-paper-data="{&quot;origPos&quot;:null}" fill="url(#color-1)" stroke="none" stroke-width="2" stroke-linecap="butt"/><path d="M471.42974,351.44633h-463.6983v-342.94595h460.66759z" data-paper-data="{&quot;origPos&quot;:null}" fill="none" stroke="#c2c2c2" stroke-width="7" stroke-linecap="round"/><g data-paper-data="{&quot;origPos&quot;:null}" fill="#b3b3b3" stroke="#8c8c8c" stroke-width="2.5" stroke-linecap="butt"><path d="M7.3687,71.41232l-5.93602,-28.4967l5.93602,-25.90609l6.36002,26.33786z" data-paper-data="{&quot;origPos&quot;:null}"/><path d="M7.3687,14.41892l-5.93602,-6.68212l5.93602,-6.27092l6.36002,6.27092z" data-paper-data="{&quot;origPos&quot;:null}"/><path d="M68.63685,7.72652l-27.98407,6.04476l-25.44007,-6.04476l25.86406,-6.47652z" data-paper-data="{&quot;origPos&quot;:null,&quot;origRot&quot;:0}"/></g><g data-paper-data="{&quot;origPos&quot;:null}" fill="#b3b3b3" stroke="#8c8c8c" stroke-width="2.5" stroke-linecap="butt"><path d="M6.5207,142.22231l-5.93602,-28.4967l5.93602,-25.90609l6.36002,26.33786z" data-paper-data="{&quot;origPos&quot;:null}"/><path d="M6.5207,85.22891l-5.93602,-6.68212l5.93602,-6.27092l6.36002,6.27092z" data-paper-data="{&quot;origPos&quot;:null}"/></g><g data-paper-data="{&quot;origPos&quot;:null}" fill="#b3b3b3" stroke="#8c8c8c" stroke-width="2.5" stroke-linecap="butt"><path d="M6.5207,210.44169l-5.93602,-28.4967l5.93602,-25.90609l6.36002,26.33786z" data-paper-data="{&quot;origPos&quot;:null}"/><path d="M6.5207,153.44829l-5.93602,-6.68212l5.93602,-6.27092l6.36002,6.27092z" data-paper-data="{&quot;origPos&quot;:null}"/></g><g data-paper-data="{&quot;origPos&quot;:null}" fill="#b3b3b3" stroke="#8c8c8c" stroke-width="2.5" stroke-linecap="butt"><path d="M6.5207,276.07046l-5.93602,-28.4967l5.93602,-25.90609l6.36002,26.33786z" data-paper-data="{&quot;origPos&quot;:null}"/><path d="M6.5207,219.07705l-5.93602,-6.68212l5.93602,-6.27092l6.36002,6.27092z" data-paper-data="{&quot;origPos&quot;:null}"/></g><g data-paper-data="{&quot;origPos&quot;:null,&quot;origRot&quot;:0}" fill="#b3b3b3" stroke="#8c8c8c" stroke-width="2.5" stroke-linecap="butt"><path d="M69.37502,351.46643l-27.98407,6.04476l-25.44007,-6.04476l25.86406,-6.47652z" data-paper-data="{&quot;origPos&quot;:null}"/><path d="M13.40687,351.46643l-6.56192,6.04476l-6.15811,-6.04476l6.15811,-6.47652z" data-paper-data="{&quot;origPos&quot;:null}"/><path d="M6.83486,289.07593l5.93602,28.4967l-5.93602,25.90609l-6.36002,-26.33786z" data-paper-data="{&quot;origPos&quot;:null,&quot;origRot&quot;:0}"/></g><path d="M6.5207,288.11003l-5.93602,-6.68212l5.93602,-6.27092l6.36002,6.27092z" data-paper-data="{&quot;origPos&quot;:null}" fill="#b3b3b3" stroke="#8c8c8c" stroke-width="2.5" stroke-linecap="butt"/><g data-paper-data="{&quot;origPos&quot;:null,&quot;index&quot;:null}" fill="#b3b3b3" stroke="#8c8c8c" stroke-width="2.5" stroke-linecap="butt"><path d="M464.55281,43.34739l6.36002,-26.33786l5.93602,25.90609l-5.93602,28.4967z" data-paper-data="{&quot;origPos&quot;:null}"/><path d="M464.55281,7.7368l6.36002,-6.27092l5.93602,6.27092l-5.93602,6.68212z" data-paper-data="{&quot;origPos&quot;:null}"/><path d="M437.20474,1.25l25.86406,6.47652l-25.44007,6.04476l-27.98407,-6.04476z" data-paper-data="{&quot;origPos&quot;:null,&quot;origRot&quot;:0}"/></g><g data-paper-data="{&quot;origPos&quot;:null,&quot;index&quot;:null}" fill="#b3b3b3" stroke="#8c8c8c" stroke-width="2.5" stroke-linecap="butt"><path d="M464.41241,114.15738l6.36002,-26.33786l5.93602,25.90609l-5.93602,28.4967z" data-paper-data="{&quot;origPos&quot;:null}"/><path d="M464.41241,78.54679l6.36002,-6.27092l5.93602,6.27092l-5.93602,6.68212z" data-paper-data="{&quot;origPos&quot;:null}"/></g><g data-paper-data="{&quot;origPos&quot;:null,&quot;index&quot;:null}" fill="#b3b3b3" stroke="#8c8c8c" stroke-width="2.5" stroke-linecap="butt"><path d="M464.41241,182.37676l6.36002,-26.33786l5.93602,25.90609l-5.93602,28.4967z" data-paper-data="{&quot;origPos&quot;:null}"/><path d="M464.41241,146.76617l6.36002,-6.27092l5.93602,6.27092l-5.93602,6.68212z" data-paper-data="{&quot;origPos&quot;:null}"/></g><g data-paper-data="{&quot;origPos&quot;:null,&quot;index&quot;:null}" fill="#b3b3b3" stroke="#8c8c8c" stroke-width="2.5" stroke-linecap="butt"><path d="M464.41241,248.00552l6.36002,-26.33786l5.93602,25.90609l-5.93602,28.4967z" data-paper-data="{&quot;origPos&quot;:null}"/><path d="M464.41241,212.39493l6.36002,-6.27092l5.93602,6.27092l-5.93602,6.68212z" data-paper-data="{&quot;origPos&quot;:null}"/></g><g data-paper-data="{&quot;origPos&quot;:null,&quot;origRot&quot;:0,&quot;index&quot;:null}" fill="#b3b3b3" stroke="#8c8c8c" stroke-width="2.5" stroke-linecap="butt"><path d="M435.47818,344.98991l25.86406,6.47652l-25.44007,6.04476l-27.98407,-6.04476z" data-paper-data="{&quot;origPos&quot;:null}"/><path d="M470.44817,344.98991l6.15811,6.47652l-6.15811,6.04476l-6.56192,-6.04476z" data-paper-data="{&quot;origPos&quot;:null}"/><path d="M476.81828,317.14086l-6.36002,26.33786l-5.93602,-25.90609l5.93602,-28.4967z" data-paper-data="{&quot;origPos&quot;:null,&quot;origRot&quot;:0}"/></g><path d="M464.41241,281.4279l6.36002,-6.27092l5.93602,6.27092l-5.93602,6.68212z" data-paper-data="{&quot;origPos&quot;:null,&quot;index&quot;:null}" fill="#b3b3b3" stroke="#8c8c8c" stroke-width="2.5" stroke-linecap="butt"/><g data-paper-data="{&quot;origPos&quot;:null}" fill="#b3b3b3" stroke="#8c8c8c" stroke-width="2.5" stroke-linecap="butt"><g data-paper-data="{&quot;origPos&quot;:null,&quot;index&quot;:null,&quot;origRot&quot;:0}"><path d="M111.45949,357.95478l-25.86406,-6.47652l25.44007,-6.04476l27.98407,6.04476z" data-paper-data="{&quot;origPos&quot;:null}"/><path d="M76.4895,357.95478l-6.15811,-6.47652l6.15811,-6.04476l6.56192,6.04476z" data-paper-data="{&quot;origPos&quot;:null}"/></g><g data-paper-data="{&quot;origPos&quot;:null,&quot;index&quot;:null,&quot;origRot&quot;:0}"><path d="M178.45167,357.95478l-25.86406,-6.47652l25.44007,-6.04476l27.98407,6.04476z" data-paper-data="{&quot;origPos&quot;:null}"/><path d="M143.48168,357.95478l-6.15811,-6.47652l6.15811,-6.04476l6.56192,6.04476z" data-paper-data="{&quot;origPos&quot;:null}"/></g><g data-paper-data="{&quot;origPos&quot;:null,&quot;index&quot;:null,&quot;origRot&quot;:0}"><path d="M242.89983,357.95478l-25.86406,-6.47652l25.44007,-6.04476l27.98407,6.04476z" data-paper-data="{&quot;origPos&quot;:null}"/><path d="M207.92984,357.95478l-6.15811,-6.47652l6.15811,-6.04476l6.56192,6.04476z" data-paper-data="{&quot;origPos&quot;:null}"/></g></g><g data-paper-data="{&quot;origPos&quot;:null}" fill="#b3b3b3" stroke="#8c8c8c" stroke-width="2.5" stroke-linecap="butt"><g data-paper-data="{&quot;origPos&quot;:null,&quot;index&quot;:null,&quot;origRot&quot;:0}"><path d="M107.62812,14.6175l-25.86406,-6.47652l25.44007,-6.04476l27.98407,6.04476z" data-paper-data="{&quot;origPos&quot;:null}"/><path d="M72.65812,14.6175l-6.15811,-6.47652l6.15811,-6.04476l6.56192,6.04476z" data-paper-data="{&quot;origPos&quot;:null}"/></g><g data-paper-data="{&quot;origPos&quot;:null,&quot;index&quot;:null,&quot;origRot&quot;:0}"><path d="M174.6203,14.6175l-25.86406,-6.47652l25.44007,-6.04476l27.98407,6.04476z" data-paper-data="{&quot;origPos&quot;:null}"/><path d="M139.6503,14.6175l-6.15811,-6.47652l6.15811,-6.04476l6.56192,6.04476z" data-paper-data="{&quot;origPos&quot;:null}"/></g><g data-paper-data="{&quot;origPos&quot;:null,&quot;index&quot;:null,&quot;origRot&quot;:0}"><path d="M239.06846,14.6175l-25.86406,-6.47652l25.44007,-6.04476l27.98407,6.04476z" data-paper-data="{&quot;origPos&quot;:null}"/><path d="M204.09846,14.6175l-6.15811,-6.47652l6.15811,-6.04476l6.56192,6.04476z" data-paper-data="{&quot;origPos&quot;:null}"/></g></g><g data-paper-data="{&quot;origPos&quot;:null}" fill="#b3b3b3" stroke="#8c8c8c" stroke-width="2.5" stroke-linecap="butt"><g data-paper-data="{&quot;origPos&quot;:null,&quot;index&quot;:null,&quot;origRot&quot;:0}"><path d="M307.90911,357.95478l-25.86406,-6.47652l25.44007,-6.04476l27.98407,6.04476z" data-paper-data="{&quot;origPos&quot;:null}"/><path d="M272.93911,357.95478l-6.15811,-6.47652l6.15811,-6.04476l6.56192,6.04476z" data-paper-data="{&quot;origPos&quot;:null}"/></g><g data-paper-data="{&quot;origPos&quot;:null,&quot;index&quot;:null,&quot;origRot&quot;:0}"><path d="M374.90128,357.95478l-25.86406,-6.47652l25.44007,-6.04476l27.98407,6.04476z" data-paper-data="{&quot;origPos&quot;:null}"/><path d="M339.93129,357.95478l-6.15811,-6.47652l6.15811,-6.04476l6.56192,6.04476z" data-paper-data="{&quot;origPos&quot;:null}"/></g><g data-paper-data="{&quot;origPos&quot;:null,&quot;index&quot;:null,&quot;origRot&quot;:0}"><path d="M404.37945,357.95478l-6.15811,-6.47652l6.15811,-6.04476l6.56192,6.04476z" data-paper-data="{&quot;origPos&quot;:null}"/></g></g><g data-paper-data="{&quot;origPos&quot;:null}" fill="#b3b3b3" stroke="#8c8c8c" stroke-width="2.5" stroke-linecap="butt"><g data-paper-data="{&quot;origPos&quot;:null,&quot;index&quot;:null,&quot;origRot&quot;:0}"><path d="M306.9207,14.6175l-25.86406,-6.47652l25.44007,-6.04476l27.98407,6.04476z" data-paper-data="{&quot;origPos&quot;:null}"/><path d="M271.95071,14.6175l-6.15811,-6.47652l6.15811,-6.04476l6.56192,6.04476z" data-paper-data="{&quot;origPos&quot;:null}"/></g><g data-paper-data="{&quot;origPos&quot;:null,&quot;index&quot;:null,&quot;origRot&quot;:0}"><path d="M373.91288,14.6175l-25.86407,-6.47652l25.44007,-6.04476l27.98407,6.04476z" data-paper-data="{&quot;origPos&quot;:null}"/><path d="M338.94289,14.6175l-6.15811,-6.47652l6.15811,-6.04476l6.56192,6.04476z" data-paper-data="{&quot;origPos&quot;:null}"/></g><g data-paper-data="{&quot;origPos&quot;:null,&quot;index&quot;:null,&quot;origRot&quot;:0}"><path d="M403.39105,14.6175l-6.15811,-6.47652l6.15811,-6.04476l6.56192,6.04476z" data-paper-data="{&quot;origPos&quot;:null}"/></g></g></g></g></svg>